<?xml version="1.0" ?><svg data-name="图层 1" id="图层_1" viewBox="0 0 500 500" xmlns="http://www.w3.org/2000/svg"><defs><style>.cls-1{fill:none;}.cls-2{fill:#fff;}</style></defs><title/><path class="cls-1" d="M282.42,169c-30.43-5.89-62.06,7.78-79.35,33.29-1.84,2.71-5.14,4.48-8.47,3.45a68.22,68.22,0,0,0-21.73-3.24,64.91,64.91,0,0,0,1.41,129.8c6.39.05,12.79,0,19.18,0h6.91c0-.61,0-1.22,0-1.84a49.35,49.35,0,0,1,64.55-46.94,58.44,58.44,0,0,1,104.5,15,40.8,40.8,0,0,1,14.73,6.18,54.15,54.15,0,0,0,6.33-30.12c-1.91-23.35-20-42-42.47-46.81a6.34,6.34,0,0,1-5.31-5.45A79.21,79.21,0,0,0,282.42,169Z"/><path class="cls-2" d="M198.59,191.27q-2.48-.77-5-1.38-1.8,2.36-3.47,4.82Z"/><path class="cls-2" d="M193.46,332.3c-6.39,0-12.79.05-19.18,0a64.91,64.91,0,0,1-1.41-129.8,68.22,68.22,0,0,1,21.73,3.24c3.33,1,6.63-.74,8.47-3.45C220.36,176.78,252,163.11,282.42,169a79.21,79.21,0,0,1,60.22,53.36c-.66-4.67,3.18-10.33,9.3-9,1.26.27,2.51.59,3.75.93-8.64-23.27-26.14-42.95-49-53.14a93,93,0,0,0-113.13,28.76q2.51.61,5,1.38l-8.47,3.45q1.67-2.46,3.47-4.82a80.83,80.83,0,0,0-73.46,18.73c-19.84,18.14-28.77,45.44-24.66,71.83,4,25.71,21.63,48.74,45.31,59.46,13.28,6,27,7.38,41.3,7.38h21.18a49.17,49.17,0,0,1-2.9-15Z"/><path class="cls-2" d="M370.25,220.09a69.15,69.15,0,0,0-14.56-5.81q.79,2.14,1.49,4.31c2.94,9.24-11.55,13.15-14.46,4l-.07-.21a6.34,6.34,0,0,0,5.31,5.45c22.46,4.82,40.56,23.46,42.47,46.81a54.15,54.15,0,0,1-6.33,30.12A41.25,41.25,0,0,1,395,315.61a68.75,68.75,0,0,0,10.21-29.09C408.21,259.77,393.9,232.84,370.25,220.09Z"/><path class="cls-2" d="M342.65,222.36l.07.21c2.92,9.16,17.4,5.25,14.46-4q-.69-2.18-1.49-4.31c-1.24-.34-2.49-.66-3.75-.93C345.82,212,342,217.69,342.65,222.36Z"/><path class="cls-2" d="M376.6,296.57c-7.42-23-26.93-41.41-51.09-45.54-26.37-4.51-52.08,6.69-67.12,28.7l8.47-3.45a57.66,57.66,0,0,0-55.5,12.18c-14.19,12.77-20.58,32.18-17.79,50.91A56.83,56.83,0,0,0,223.67,381c9.77,4.93,20,6.29,30.78,6.29h98.46c8.39,0,16.67.1,24.71-2.89,19.42-7.22,32.75-26.21,32.06-47.09a49.09,49.09,0,0,0-38.31-46c-9.41-2.08-13.42,12.38-4,14.46,15,3.31,26.77,15.79,27.3,31.53.49,14.52-8.42,28.24-22.28,33.07-6.06,2.11-12.13,1.91-18.41,1.91H263.51c-4.6,0-9.2.05-13.8,0a41.85,41.85,0,0,1-34.3-65.91c10.53-15.33,30-21,47.47-15.64,3.35,1,6.62-.73,8.47-3.45,11.27-16.48,31.82-25.42,51.57-21.55a51.63,51.63,0,0,1,39.22,34.8C365.09,309.71,379.57,305.8,376.6,296.57Z"/></svg>