<?xml version="1.0" ?><svg fill="#fff" style="enable-background:new 0 0 50 50;" version="1.1" viewBox="0 0 50 50" xml:space="preserve" xmlns="http://www.w3.org/2000/svg" xmlns:xlink="http://www.w3.org/1999/xlink"><g id="Layer_1"><path d="M26,4.051V1h-2v3.051C13.22,4.562,4.562,13.22,4.051,24H1v2h3.051C4.562,36.78,13.22,45.438,24,45.949V49h2v-3.051   C36.78,45.438,45.438,36.78,45.949,26H49v-2h-3.051C45.438,13.22,36.78,4.562,26,4.051z M26,43.949V41h-2v2.949   C14.323,43.442,6.558,35.677,6.051,26H9v-2H6.051C6.558,14.323,14.323,6.558,24,6.051V9h2V6.051   C35.677,6.558,43.442,14.323,43.949,24H41v2h2.949C43.442,35.677,35.677,43.442,26,43.949z"/><path d="M25,13c-5.215,0-9,4.206-9,10c0,5.889,7.978,13.413,8.317,13.73L25,37.369l0.683-0.639C26.022,36.413,34,28.889,34,23   C34,17.206,30.215,13,25,13z M25,34.597C23.118,32.688,18,27.12,18,23c0-4.71,2.878-8,7-8s7,3.29,7,8   C32,27.12,26.882,32.688,25,34.597z"/><path d="M25,18c-2.206,0-4,1.794-4,4s1.794,4,4,4s4-1.794,4-4S27.206,18,25,18z M25,24c-1.103,0-2-0.897-2-2s0.897-2,2-2   s2,0.897,2,2S26.103,24,25,24z"/></g><g/></svg>