<?xml version="1.0" ?><!DOCTYPE svg  PUBLIC '-//W3C//DTD SVG 1.1//EN'  'http://www.w3.org/Graphics/SVG/1.1/DTD/svg11.dtd'><svg enable-background="new 0 0 96 96" height="96px" id="watch" version="1.1" viewBox="0 0 96 96" width="96px" xml:space="preserve" xmlns="http://www.w3.org/2000/svg" xmlns:xlink="http://www.w3.org/1999/xlink"><path d="M72,21.174V12c0-6.63-5.37-12-12-12H36c-6.63,0-12,5.37-12,12v9.174C16.637,27.766,12,37.34,12,48s4.637,20.234,12,26.826  V84c0,6.63,5.37,12,12,12h24c6.63,0,12-5.37,12-12v-9.174C79.363,68.234,84,58.66,84,48S79.363,27.766,72,21.174z M32,12  c0-2.21,1.79-4,4-4h24c2.21,0,4,1.79,4,4v3.751C59.18,13.354,53.749,12,48,12s-11.179,1.354-16,3.751V12z M64,84c0,2.21-1.79,4-4,4  H36c-2.21,0-4-1.79-4-4v-3.751C36.821,82.646,42.251,84,48,84s11.18-1.354,16-3.751V84z M48,76c-15.464,0-28-12.536-28-28  s12.536-28,28-28s28,12.536,28,28S63.464,76,48,76z"/><path d="M59.314,53.657L52,46.343V32c0-2.209-1.791-4-4-4s-4,1.791-4,4v16c0,0.009,0.003,0.018,0.003,0.027  c0.001,0.253,0.026,0.506,0.076,0.755c0.024,0.122,0.069,0.235,0.104,0.354c0.039,0.132,0.069,0.265,0.122,0.394  c0.058,0.138,0.136,0.264,0.208,0.394c0.054,0.099,0.097,0.2,0.16,0.295c0.147,0.22,0.314,0.427,0.501,0.613l8.483,8.481  c1.562,1.562,4.095,1.562,5.655,0C60.874,57.751,60.876,55.219,59.314,53.657z"/></svg>