<?xml version="1.0" standalone="no"?>
<!DOCTYPE svg PUBLIC "-//W3C//DTD SVG 20010904//EN"
 "http://www.w3.org/TR/2001/REC-SVG-20010904/DTD/svg10.dtd">
<svg version="1.0" xmlns="http://www.w3.org/2000/svg"
 width="512.000000pt" height="512.000000pt" viewBox="0 0 512.000000 512.000000"
 preserveAspectRatio="xMidYMid meet">
<metadata>
Created by potrace 1.11, written by Peter Selinger 2001-2013
</metadata>
<g transform="translate(0.000000,512.000000) scale(0.100000,-0.100000)"
fill="#000000" stroke="none">
<path d="M456 5104 c-213 -52 -390 -230 -441 -445 -22 -95 -23 -4077 0 -4184
47 -225 235 -413 460 -460 105 -22 4065 -22 4170 0 226 48 413 236 460 462 13
64 15 334 13 2120 l-3 2048 -23 65 c-65 180 -202 317 -382 382 l-65 23 -2065
2 c-1763 1 -2074 -1 -2124 -13z m2100 -1012 c28 -19 34 -56 34 -227 0 -173 0
-176 -25 -200 -28 -29 -61 -32 -93 -9 -21 15 -22 20 -22 211 0 169 2 199 17
215 16 18 68 24 89 10z m-772 -198 c25 -10 196 -316 196 -352 0 -52 -77 -84
-113 -47 -27 26 -187 314 -187 335 0 44 60 81 104 64z m1540 -15 c17 -13 26
-30 26 -47 0 -15 -40 -96 -93 -187 -91 -158 -92 -160 -129 -163 -44 -4 -78 24
-78 63 0 27 146 292 183 333 26 28 56 28 91 1z m-582 -473 c183 -46 366 -162
488 -308 107 -129 191 -329 215 -508 5 -40 11 -49 56 -79 89 -61 190 -179 240
-279 42 -87 46 -91 91 -107 161 -56 307 -221 353 -400 19 -76 19 -204 0 -279
-51 -194 -217 -360 -411 -411 -88 -23 -1528 -23 -1642 1 -127 25 -231 82 -327
177 -137 138 -198 283 -199 477 0 113 21 206 70 301 l23 47 -30 69 c-111 243
-109 550 6 791 92 194 220 328 408 427 146 76 258 103 438 104 102 1 144 -4
221 -23z m-1387 -152 c176 -101 185 -108 185 -146 0 -32 -39 -78 -66 -78 -25
0 -333 180 -344 201 -6 10 -10 27 -10 39 0 26 42 70 67 70 10 0 86 -39 168
-86z m2530 61 c29 -29 33 -75 8 -97 -10 -9 -87 -55 -171 -103 -134 -77 -157
-87 -180 -79 -38 13 -59 55 -46 91 7 22 42 47 169 121 87 50 167 92 178 92 10
0 29 -11 42 -25z m-2539 -753 c38 -25 40 -103 4 -122 -11 -6 -101 -10 -206
-10 -213 0 -224 3 -224 71 0 64 16 69 230 69 102 0 190 -4 196 -8z m2749 -12
c23 -26 23 -74 0 -100 -17 -19 -30 -20 -209 -20 -105 0 -196 4 -202 8 -14 9
-34 47 -34 65 0 8 9 26 21 41 l20 26 193 0 c181 0 194 -1 211 -20z m-2572
-612 c28 -33 22 -73 -15 -101 -62 -46 -298 -177 -318 -177 -28 0 -70 44 -70
73 0 13 6 31 13 40 11 14 280 175 317 190 22 8 53 -2 73 -25z"/>
<path d="M2371 3279 c-283 -55 -509 -254 -602 -530 -54 -157 -52 -367 4 -519
11 -30 21 -56 23 -58 1 -2 28 18 60 44 129 105 276 150 461 142 l115 -5 66 66
c87 86 193 152 312 192 120 40 292 51 403 25 38 -9 72 -16 77 -16 12 0 -16
110 -46 183 -55 131 -167 270 -278 346 -71 49 -202 107 -283 125 -77 17 -237
20 -312 5z"/>
<path d="M2908 2495 c-135 -33 -274 -122 -360 -231 -27 -35 -57 -66 -67 -69
-10 -3 -47 1 -82 10 -335 79 -653 -172 -653 -515 0 -244 163 -453 401 -515 48
-13 174 -15 798 -15 462 0 756 4 784 11 113 26 231 119 283 225 122 242 -8
534 -270 608 l-60 16 -26 66 c-82 205 -252 356 -461 409 -72 18 -210 18 -287
0z"/>
</g>
</svg>
